<?xml version="1.0" encoding="UTF-8"?>
<svg id="Layer_1" xmlns="http://www.w3.org/2000/svg" version="1.1" viewBox="0 0 24 24">
  <!-- Generator: Adobe Illustrator 29.3.1, SVG Export Plug-In . SVG Version: 2.1.0 Build 151)  -->
  <path d="M10.85,6.43s-.04.04-.06.05c-.01.76-.03,1.52-.04,2.27.3.57.61,1.15.91,1.74.18.35.35.7.52,1.05.18,0,.36,0,.54.01,0-.23,0-.46,0-.69v-3.63c-.62-.27-1.24-.54-1.86-.81Z"/>
  <path d="M12.18,11.54c.07.09.47.6,1.19.67.63.06,1.07-.26,1.18-.34-.61-.16-1.22-.31-1.83-.47-.18.05-.36.09-.54.14Z"/>
  <path d="M14.55,11.21c-.74,0-1.33-.58-1.33-1.3s.6-1.3,1.33-1.3" isolation="isolate"/>
  <path d="M12.66,11.55c.63.11,1.26.21,1.89.32v-.2s0,0,0,0c-1,0-1.81-.79-1.81-1.76s.81-1.76,1.81-1.76c0,0,0,0,0,0,0-.71,0-1.41,0-2.12-.62.13-1.24.27-1.85.4,0,.15-.03,3.56-.05,5.11Z"/>
  <path d="M9.08,6.45v5.11c.59.22,1.19.44,1.78.66,0-.23,0-.45,0-.68,0,0,0,0,0,0,0-2.02,0-4.05.01-6.07-.6.33-1.2.65-1.8.98ZM10.17,6.9c-.2,0-.36-.16-.36-.36s.16-.36.36-.36.36.16.36.36-.16.36-.36.36Z"/>
  <g>
    <path d="M5.36,16.07c-.15,0-.28-.03-.39-.1s-.21-.16-.28-.27c-.07-.11-.1-.24-.1-.39s.03-.27.1-.38c.07-.11.16-.2.28-.27.12-.07.25-.1.39-.1s.28.03.4.1c.12.07.21.16.28.27.07.11.1.24.1.38s-.03.27-.1.39c-.07.12-.16.21-.28.27s-.25.1-.4.1ZM5.36,15.7c.07,0,.14-.02.2-.05.06-.03.1-.08.13-.14.03-.06.05-.12.05-.2s-.02-.14-.05-.2c-.03-.06-.08-.1-.13-.14s-.12-.05-.19-.05-.14.02-.19.05c-.06.03-.1.08-.13.14-.03.06-.05.12-.05.2s.02.14.05.2c.03.06.07.1.13.14.06.03.12.05.19.05Z"/>
    <path d="M7,16.06c-.13,0-.24-.03-.34-.08s-.18-.13-.23-.22c-.06-.1-.08-.21-.08-.33v-.84h.4v.83c0,.06.01.11.03.15s.05.08.09.1c.04.02.09.03.14.03.08,0,.15-.03.19-.08s.07-.12.07-.21v-.83h.39v.84c0,.13-.03.24-.08.33-.06.1-.13.17-.23.22s-.21.08-.34.08Z"/>
    <path d="M7.84,14.93v-.35h1.07v.35h-1.07ZM8.18,16.04v-2.05h.39v2.05h-.39Z"/>
    <path d="M9.14,16.04v-1.45h.39v1.45h-.39ZM10.11,16.04v-.83c0-.09-.03-.16-.08-.21-.05-.05-.12-.08-.21-.08-.06,0-.11.01-.15.04s-.08.06-.1.1-.04.1-.04.15l-.15-.08c0-.11.02-.21.07-.29.05-.09.12-.15.2-.2s.19-.07.3-.07.2.03.29.08.15.12.2.21c.05.08.07.18.07.27v.92h-.4Z"/>
    <path d="M11.5,16.07c-.15,0-.28-.03-.4-.1s-.21-.16-.28-.27c-.07-.11-.1-.24-.1-.38s.03-.27.1-.39c.07-.12.16-.21.28-.27.12-.07.25-.1.4-.1.11,0,.22.02.32.06s.18.1.25.18l-.26.26s-.08-.08-.13-.1c-.05-.02-.11-.03-.17-.03-.07,0-.14.02-.19.05s-.1.08-.13.14c-.03.06-.05.12-.05.2s.02.14.05.2c.03.06.08.1.13.14s.12.05.19.05c.07,0,.12-.01.18-.03.05-.02.1-.06.14-.1l.25.25c-.07.08-.15.14-.25.18-.1.04-.2.06-.32.06Z"/>
    <path d="M12.99,16.07c-.15,0-.29-.03-.41-.1-.12-.07-.21-.16-.28-.27-.07-.11-.1-.24-.1-.39s.03-.27.1-.39c.07-.11.16-.2.27-.27.12-.07.25-.1.39-.1.14,0,.26.03.37.09.11.06.19.15.25.26.06.11.09.24.09.38,0,.03,0,.05,0,.08,0,.03,0,.06-.01.09h-1.22s0-.29,0-.29h1.04s-.16.12-.16.12c0-.09-.02-.16-.05-.22-.03-.06-.07-.1-.12-.13-.05-.03-.11-.04-.19-.04-.08,0-.15.02-.2.05-.06.03-.1.08-.13.15-.03.06-.05.14-.05.22s.02.17.05.23c.03.07.08.12.14.15.06.03.13.05.22.05.07,0,.14-.01.2-.04.06-.02.11-.06.16-.11l.23.23c-.07.08-.16.15-.26.19-.1.04-.21.06-.33.06Z"/>
    <path d="M13.92,16.04v-1.45h.39v1.45h-.39ZM14.89,16.04v-.83c0-.09-.03-.16-.08-.21-.05-.05-.12-.08-.21-.08-.06,0-.11.01-.15.04s-.08.06-.1.1-.04.1-.04.15l-.15-.08c0-.11.02-.21.07-.29.05-.09.12-.15.2-.2s.19-.07.3-.07.2.03.29.08.15.12.2.21.07.18.07.27v.92h-.4Z"/>
    <path d="M15.48,14.93v-.35h1.07v.35h-1.07ZM15.82,16.04v-2.05h.39v2.05h-.39Z"/>
    <path d="M17.47,16.07c-.15,0-.29-.03-.41-.1-.12-.07-.21-.16-.28-.27-.07-.11-.1-.24-.1-.39s.03-.27.1-.39c.07-.11.16-.2.27-.27.12-.07.25-.1.39-.1.14,0,.26.03.37.09.11.06.19.15.25.26.06.11.09.24.09.38,0,.03,0,.05,0,.08,0,.03,0,.06-.01.09h-1.22s0-.29,0-.29h1.04s-.16.12-.16.12c0-.09-.02-.16-.05-.22-.03-.06-.07-.1-.12-.13-.05-.03-.11-.04-.19-.04-.08,0-.15.02-.2.05-.06.03-.1.08-.13.15-.03.06-.05.14-.05.22s.02.17.05.23c.03.07.08.12.14.15.06.03.13.05.22.05.07,0,.14-.01.2-.04.06-.02.11-.06.16-.11l.23.23c-.07.08-.16.15-.26.19-.1.04-.21.06-.33.06Z"/>
    <path d="M18.4,16.04v-1.45h.39v1.45h-.39ZM18.79,15.24l-.15-.11c.02-.18.07-.32.16-.42.09-.1.21-.15.37-.15.07,0,.13.01.19.03.05.02.11.06.15.11l-.25.29s-.05-.04-.08-.06c-.03-.01-.07-.02-.11-.02-.08,0-.15.03-.21.08s-.08.13-.08.24Z"/>
  </g>
</svg>