<?xml version="1.0" encoding="UTF-8"?>
<svg id="Layer_1" xmlns="http://www.w3.org/2000/svg" version="1.1" viewBox="0 0 24 24">
  <!-- Generator: Adobe Illustrator 29.3.1, SVG Export Plug-In . SVG Version: 2.1.0 Build 151)  -->
  <defs>
    <style>
      .st0 {
        isolation: isolate;
      }
    </style>
  </defs>
  <path d="M9,4.9s-.1.1-.2.1c0,2.2,0,4.5-.1,6.7.9,1.7,1.8,3.4,2.7,5.2.5,1,1,2.1,1.5,3.1.5,0,1.1,0,1.6,0V7.2l-5.5-2.4h0Z"/>
  <path d="M12.9,20c.2.3,1.4,1.8,3.5,2,1.9.2,3.2-.8,3.5-1-1.8-.5-3.6-.9-5.4-1.4-.5.1-1.1.3-1.6.4Z"/>
  <path class="st0" d="M19.9,19c-2.2,0-3.9-1.7-3.9-3.8s1.8-3.8,3.9-3.8"/>
  <path d="M14.3,20c1.9.3,3.7.6,5.6.9v-.6h0c-3,0-5.4-2.3-5.4-5.2s2.4-5.2,5.4-5.2h0V3.7c-1.8.4-3.7.8-5.5,1.2,0,.4,0,10.5-.1,15.1h0Z"/>
  <path d="M3.7,4.9v15.1c1.7.7,3.5,1.3,5.3,2v-2h0c0-6,0-12,0-18-1.8,1-3.6,1.9-5.3,2.9h0ZM7,6.2c-.6,0-1.1-.5-1.1-1.1s.5-1.1,1.1-1.1,1.1.5,1.1,1.1-.5,1.1-1.1,1.1Z"/>
</svg>